<?xml version="1.0" encoding="utf-8"?>
<!-- Generator: Adobe Illustrator 27.9.3, SVG Export Plug-In . SVG Version: 9.03 Build 53313)  -->
<svg version="1.1" id="Layer_1" xmlns="http://www.w3.org/2000/svg" xmlns:xlink="http://www.w3.org/1999/xlink" x="0px" y="0px"
	 viewBox="0 0 60 40" style="enable-background:new 0 0 60 40;" xml:space="preserve">
<style type="text/css">
	.st0{fill:#F78C00;}
	.st1{fill:#FFFFFF;}
</style>
<g>
	<path class="st0" d="M28.58,20c-0.28,2.28-2.23,4.04-4.58,4.04c-2.55,0-4.62-2.07-4.62-4.62c0-2.55,2.07-4.62,4.62-4.62v-1.15
		c-3.19,0-5.77,2.59-5.77,5.77c0,3.19,2.59,5.77,5.77,5.77c2.99,0,5.45-2.28,5.74-5.19H28.58z"/>
	<g>
		<path class="st1" d="M4.58,15.21h1.16v8.68H4.58V15.21z"/>
		<path class="st1" d="M8.24,23.89v-8.95h0.01l4.55,6.46l-0.49-0.1l4.54-6.36h0.02v8.95h-1.15v-6.31l0.07,0.59l-3.28,4.63h-0.02
			l-3.32-4.63l0.2-0.54v6.26H8.24z"/>
		<path class="st1" d="M36.85,15.21c0.63,0,1.17,0.11,1.62,0.32c0.45,0.21,0.79,0.52,1.04,0.92s0.37,0.88,0.37,1.45
			c0,0.34-0.05,0.68-0.16,1.01c-0.1,0.33-0.27,0.63-0.5,0.9c-0.23,0.27-0.53,0.48-0.89,0.64c-0.37,0.16-0.82,0.24-1.34,0.24H35.7
			v3.19h-1.16v-8.68H36.85z M36.97,19.58c0.34,0,0.63-0.06,0.85-0.17c0.22-0.11,0.4-0.25,0.53-0.43c0.13-0.17,0.22-0.35,0.28-0.55
			c0.06-0.19,0.08-0.36,0.08-0.52c0-0.18-0.03-0.36-0.08-0.55s-0.15-0.36-0.28-0.52c-0.13-0.16-0.3-0.28-0.52-0.38
			c-0.21-0.1-0.47-0.15-0.79-0.15H35.7v3.25H36.97z"/>
		<path class="st1" d="M43.98,15.21c0.44,0,0.85,0.06,1.22,0.17c0.37,0.12,0.7,0.29,0.97,0.52c0.28,0.23,0.49,0.51,0.65,0.84
			c0.16,0.33,0.23,0.72,0.23,1.16c0,0.34-0.05,0.68-0.15,1.01c-0.1,0.33-0.27,0.63-0.5,0.89c-0.23,0.27-0.53,0.48-0.91,0.65
			s-0.83,0.25-1.37,0.25h-1.28v3.19h-1.16v-8.68H43.98z M44.1,19.58c0.34,0,0.63-0.05,0.86-0.16c0.23-0.1,0.41-0.24,0.53-0.4
			c0.13-0.16,0.22-0.34,0.28-0.53s0.08-0.37,0.08-0.54c0-0.18-0.03-0.36-0.09-0.55s-0.16-0.36-0.29-0.52s-0.3-0.29-0.52-0.4
			s-0.47-0.16-0.77-0.16h-1.34v3.25H44.1z M45.52,20.24l2.27,3.65h-1.34l-2.3-3.61L45.52,20.24z"/>
		<path class="st1" d="M48.85,19.56c0-0.6,0.11-1.17,0.34-1.7c0.23-0.53,0.55-1,0.95-1.42s0.88-0.74,1.41-0.97s1.11-0.35,1.72-0.35
			c0.61,0,1.18,0.12,1.71,0.35s1,0.56,1.42,0.97s0.73,0.88,0.97,1.42c0.23,0.53,0.35,1.1,0.35,1.7c0,0.62-0.12,1.19-0.35,1.73
			c-0.23,0.54-0.55,1.01-0.97,1.41c-0.41,0.4-0.88,0.72-1.42,0.95s-1.1,0.34-1.71,0.34c-0.62,0-1.19-0.11-1.72-0.34
			c-0.53-0.22-1-0.54-1.41-0.94s-0.73-0.87-0.95-1.4C48.96,20.77,48.85,20.19,48.85,19.56z M50.05,19.57c0,0.46,0.08,0.88,0.25,1.28
			c0.17,0.4,0.4,0.75,0.7,1.05c0.3,0.3,0.64,0.54,1.03,0.71c0.39,0.17,0.82,0.26,1.27,0.26c0.45,0,0.87-0.09,1.26-0.26
			s0.73-0.41,1.02-0.71c0.29-0.3,0.52-0.65,0.68-1.05c0.17-0.4,0.25-0.83,0.25-1.29c0-0.46-0.08-0.89-0.25-1.29
			c-0.17-0.4-0.4-0.76-0.7-1.06c-0.3-0.3-0.64-0.54-1.03-0.71c-0.39-0.17-0.81-0.26-1.26-0.26c-0.46,0-0.88,0.09-1.27,0.26
			c-0.39,0.18-0.74,0.42-1.03,0.72s-0.52,0.66-0.68,1.06C50.13,18.68,50.05,19.11,50.05,19.57z"/>
	</g>
</g>
</svg>
